<?xml version="1.0" standalone="no"?>
<!DOCTYPE svg PUBLIC "-//W3C//DTD SVG 20010904//EN"
 "http://www.w3.org/TR/2001/REC-SVG-20010904/DTD/svg10.dtd">
<svg version="1.0" xmlns="http://www.w3.org/2000/svg"
 width="256.000000pt" height="256.000000pt" viewBox="0 0 256.000000 256.000000"
 preserveAspectRatio="xMidYMid meet">
<metadata>
Created by potrace 1.14, written by Peter Selinger 2001-2017
</metadata>
<g transform="translate(0.000000,256.000000) scale(0.100000,-0.100000)"
fill="#000000" stroke="none">
<path d="M1025 2530 c-111 -24 -216 -60 -317 -111 -74 -37 -78 -41 -78 -73 0
-26 -7 -41 -30 -59 -16 -14 -30 -35 -30 -47 0 -29 -26 -77 -49 -90 -36 -19
-72 -11 -101 20 l-28 30 -59 -65 c-159 -181 -256 -373 -303 -607 -25 -123 -27
-357 -4 -479 34 -180 109 -359 215 -509 68 -97 213 -241 311 -307 84 -58 266
-150 313 -158 27 -5 33 -1 64 45 35 52 132 148 180 177 14 9 44 34 67 55 22
22 45 38 50 37 24 -4 34 3 34 25 0 22 -5 24 -70 31 -86 9 -110 26 -152 109
-17 33 -43 79 -58 101 -70 104 -140 321 -140 434 0 59 1 63 14 45 13 -16 18
-17 35 -7 12 7 28 13 36 13 9 0 14 4 10 9 -3 5 4 12 14 16 11 3 23 15 26 26 4
10 10 17 15 14 4 -3 6 4 3 15 -3 11 -14 20 -24 20 -11 0 -22 6 -25 14 -3 8
-26 19 -52 26 -26 7 -53 17 -59 23 -19 14 -16 35 5 39 19 4 32 -2 105 -46 26
-16 51 -26 54 -22 11 11 -55 71 -117 106 -70 40 -71 44 -40 179 11 47 23 96
25 108 3 12 15 28 27 34 28 15 136 19 142 5 3 -7 7 -8 13 -1 10 12 53 15 53 3
0 -7 8 -7 103 8 29 4 52 3 55 -3 8 -11 149 -43 192 -43 17 0 30 -4 30 -10 0
-5 7 -10 15 -10 21 0 55 -41 55 -67 0 -13 -4 -23 -9 -23 -6 0 -6 -12 0 -32 5
-17 7 -34 4 -36 -5 -6 54 -124 69 -137 7 -5 25 -29 40 -52 42 -63 53 -176 33
-337 -16 -120 -32 -185 -43 -173 -3 3 3 46 15 95 13 56 21 121 20 173 -1 110
-17 153 -18 49 -1 -80 -34 -224 -69 -302 -13 -30 -17 -50 -11 -54 6 -3 13 3
16 15 3 12 9 21 14 21 18 0 8 -19 -31 -60 -22 -23 -39 -49 -38 -58 2 -9 -2
-17 -7 -17 -6 0 -46 -35 -90 -77 -44 -43 -95 -88 -113 -101 l-33 -25 48 5 c31
4 94 28 181 70 73 36 143 66 156 67 12 2 28 6 33 9 6 4 25 4 42 1 26 -6 36
-16 58 -63 15 -31 34 -61 42 -68 13 -9 14 -14 4 -24 -20 -20 -15 -34 5 -15 17
15 22 15 55 1 19 -8 37 -20 40 -27 11 -32 -98 -194 -186 -278 -36 -35 -38 -39
-16 -31 15 5 62 28 105 49 339 171 585 500 665 885 43 206 24 471 -47 669 -58
161 -166 340 -254 423 -23 22 -50 49 -59 59 -100 117 -296 241 -476 301 -143
48 -254 65 -424 64 -112 0 -181 -6 -246 -19z m785 -182 c67 -80 151 -261 151
-325 0 -21 2 -60 5 -88 4 -46 4 -49 -10 -31 -20 24 -31 15 -17 -12 18 -33 14
-38 -51 -62 -42 -15 -76 -37 -109 -70 l-48 -48 -32 76 c-18 43 -38 101 -46
131 -18 68 -60 128 -151 216 -40 38 -72 73 -72 77 0 5 17 8 38 8 73 0 193 -75
251 -158 37 -53 35 -30 -3 47 -20 39 -36 77 -36 84 0 14 -79 37 -126 37 -28 0
-30 11 -6 38 26 30 79 43 145 36 56 -7 59 -8 97 -62 22 -30 40 -61 40 -67 0
-18 67 -160 95 -201 14 -20 25 -32 25 -26 0 17 -22 65 -39 85 -8 10 -16 25
-17 33 -5 32 -50 132 -84 184 -33 51 -39 55 -80 60 -49 6 -50 5 30 38 33 14
37 14 50 0z m215 -90 c38 -33 45 -91 15 -123 -23 -25 -23 -25 -2 -25 11 0 23
-4 26 -9 3 -4 -6 -6 -21 -3 -18 3 -24 1 -19 -7 4 -6 12 -11 17 -11 6 0 24 -13
41 -29 25 -23 30 -34 24 -56 -4 -16 -12 -25 -20 -22 -7 3 -13 -1 -13 -9 0 -7
4 -11 8 -9 15 10 29 -22 21 -46 l-9 -23 -18 27 c-9 15 -18 49 -20 77 -2 35
-10 60 -28 83 -14 18 -30 51 -36 73 -6 21 -17 49 -26 61 -8 11 -19 33 -25 47
-9 25 -8 26 25 26 21 0 44 -9 60 -22z m-900 -48 c-10 -11 -23 -20 -28 -20 -6
0 -2 9 8 20 10 11 23 20 28 20 6 0 2 -9 -8 -20z m-301 -521 c4 -9 0 -34 -9
-54 -8 -21 -13 -48 -9 -59 3 -12 -8 -2 -26 21 -46 63 -48 95 -8 187 l33 78 6
-78 c3 -44 9 -86 13 -95z m85 -513 c15 -17 15 -18 -3 -15 -26 5 -41 32 -31 55
8 18 8 18 13 -1 2 -11 11 -28 21 -39z m41 40 c0 -3 -4 -8 -10 -11 -5 -3 -10
-1 -10 4 0 6 5 11 10 11 6 0 10 -2 10 -4z m984 -61 c-4 -8 -8 -15 -10 -15 -2
0 -4 7 -4 15 0 8 4 15 10 15 5 0 7 -7 4 -15z m-51 -56 c-14 -14 -6 -39 13 -39
16 0 19 -36 5 -45 -5 -3 -13 0 -18 7 -5 9 -9 3 -13 -17 -4 -24 -11 -31 -33
-33 -21 -3 -27 1 -27 17 0 11 10 27 22 35 12 9 17 16 10 16 -16 0 -8 50 10 62
21 12 44 10 31 -3z"/>
<path d="M1365 1381 c3 -7 0 -8 -9 -5 -21 8 -126 -21 -169 -46 -76 -45 -1 -49
97 -5 51 23 63 24 114 16 31 -5 69 -14 83 -20 15 -5 30 -7 33 -4 3 4 6 -1 6
-10 0 -9 -7 -17 -15 -17 -19 0 -58 -21 -68 -37 -4 -7 -13 -13 -19 -13 -7 0 -7
4 0 13 8 9 2 12 -26 14 -32 1 -34 0 -12 -7 21 -7 22 -8 5 -10 -11 -1 -43 -5
-72 -9 -29 -4 -50 -4 -47 1 3 4 1 8 -4 8 -16 0 -33 -27 -39 -61 l-5 -31 23 21
c29 27 33 26 49 -4 19 -36 64 -34 84 3 13 24 15 25 22 8 5 -13 2 -22 -10 -28
-13 -7 -14 -13 -6 -23 14 -17 28 -12 94 32 70 47 116 93 116 116 0 29 -36 73
-72 89 -39 18 -163 25 -153 9z m-25 -175 c0 -3 -4 -8 -10 -11 -5 -3 -10 -1
-10 4 0 6 5 11 10 11 6 0 10 -2 10 -4z"/>
<path d="M1278 1133 c7 -3 16 -2 19 1 4 3 -2 6 -13 5 -11 0 -14 -3 -6 -6z"/>
<path d="M1345 1130 c3 -5 8 -10 11 -10 2 0 4 5 4 10 0 6 -5 10 -11 10 -5 0
-7 -4 -4 -10z"/>
<path d="M1616 1005 c-10 -49 -27 -104 -36 -121 -10 -17 -15 -37 -10 -43 15
-26 78 189 68 235 -2 10 -12 -21 -22 -71z"/>
<path d="M1188 917 c-12 -29 -10 -73 3 -60 6 6 9 26 7 44 -2 26 -5 30 -10 16z"/>
<path d="M1065 859 c-10 -15 2 -24 17 -11 7 5 24 12 38 15 19 3 16 5 -12 6
-20 0 -40 -4 -43 -10z"/>
<path d="M1006 711 c-3 -5 1 -14 9 -21 8 -7 15 -19 15 -26 0 -32 39 -54 93
-54 28 0 57 4 63 8 7 4 -19 7 -57 7 -65 0 -88 9 -89 35 0 18 43 27 110 21 41
-3 89 -4 105 -1 25 5 18 9 -45 22 -85 18 -196 23 -204 9z"/>
</g>
</svg>
